# xmcd
#
# Track frame offsets:
#	150
#	17503
#	34243
#	50133
#	66058
#	79338
#	95690
#	109503
#	123193
#	139590
#
# Disc length: 2068 seconds
#
# Revision: 0
# Processed by: cddbd v1.5.2PL0 Copyright (c) Steve Scherf et al.
# Submitted via: EasyCDDAExtractor 15.3.0.1
#
DISCID=8108120a
DTITLE=Pandora - Otra Vez
DYEAR=1986
DGENRE=Latin
TTITLE0=Solo El Y Yo
TTITLE1=Horas
TTITLE2=Como Una Mariposa
TTITLE3=No Me Queda Nada
TTITLE4=Adorable Ladron
TTITLE5=Alguien Llena Mi Lugar
TTITLE6=Ayudame
TTITLE7=Abusas De Mi
TTITLE8=Adios Amor Adios
TTITLE9=Solitario Traidor
EXTD=
EXTT0=
EXTT1=
EXTT2=
EXTT3=
EXTT4=
EXTT5=
EXTT6=
EXTT7=
EXTT8=
EXTT9=
PLAYORDER=
